<?xml version="1.0" encoding="iso-8859-1"?>
<!-- Generator: Adobe Illustrator 19.1.1, SVG Export Plug-In . SVG Version: 6.00 Build 0)  -->
<svg version="1.1"  xmlns="http://www.w3.org/2000/svg" xmlns:xlink="http://www.w3.org/1999/xlink" x="0px" y="0px"
	 viewBox="0 0 48 48" style="enable-background:new 0 0 48 48;" xml:space="preserve">
<circle style="fill:#BBDEFB;" cx="29.5" cy="15.5" r="8.5"/>
<circle style="fill:#BBDEFB;" cx="37" cy="23.893" r="7"/>
<circle style="fill:#BBDEFB;" cx="11" cy="24" r="7"/>
<circle style="fill:#BBDEFB;" cx="17.5" cy="16.5" r="6.5"/>
<circle style="fill:#BBDEFB;" cx="25" cy="21.893" r="7"/>
<path style="fill:#BBDEFB;" d="M7,27c0,2.208,1.791,4,4,4h25c2.209,0,4-1.792,4-4v-1c0-2.209-1.791-4-4-4H11c-2.209,0-4,1.791-4,4
	V27z"/>
<path style="fill:none;stroke:#2196F3;stroke-width:2;stroke-linecap:round;stroke-linejoin:round;stroke-miterlimit:10;" d="
	M27.365,36.718c0.729,2.031,2.5,3.333,4.635,3.281c2.76-0.104,4.999-2.239,4.999-4.999C36.999,32.239,34.76,30,32,30H12.003"/>
<path style="fill:none;stroke:#2196F3;stroke-width:2;stroke-linecap:round;stroke-linejoin:round;stroke-miterlimit:10;" d="
	M21.267,20.56C21.853,19.067,23.293,18,25,18c2.187,0,4,1.813,4,4s-1.813,4-4,4H14"/>
<path style="fill:none;stroke:#2196F3;stroke-width:2;stroke-linecap:round;stroke-linejoin:round;stroke-miterlimit:10;" d="
	M15.36,38.4C15.84,39.36,16.84,40,18,40c1.64,0,3-1.36,3-3s-1.36-3-3-3h-8"/>
</svg>
